<?xml version="1.0" standalone="no"?><!DOCTYPE svg PUBLIC "-//W3C//DTD SVG 1.1//EN" "http://www.w3.org/Graphics/SVG/1.1/DTD/svg11.dtd"><svg t="1572920525294" class="icon" viewBox="0 0 1024 1024" version="1.1" xmlns="http://www.w3.org/2000/svg" p-id="789" xmlns:xlink="http://www.w3.org/1999/xlink" width="200" height="200"><defs><style type="text/css"></style></defs><path d="M429.3 55.3L173 55.3c-11 0-19.99999999 9-20 20l0 3.1c0 10 7.40000001 18.3 17.20000001 19.8 55.3 8.29999999 97.8 56.09999999 97.79999999 113.70000001s-42.4 105.4-97.8 113.69999999c-9.9 1.5-17.2 9.8-17.2 19.8L152.99999999 386c0 11 9 19.99999999 20.00000001 20L617 406c11 0 19.99999999-9 20-20L637 280c0-33.1-13.7-64.8-37.9-87.5L470.3 71.6c-11.1-10.5-25.8-16.3-41-16.3zM546 336l-144 0c-11 0-19.99999999-9-20-20L382 145.29999999c0-11 9-19.99999999 19.99999999-19.99999999l13.60000001 0c10.5 0 20.7 4.2 28.1 11.6l86.69999999 85.9c22.8 22.5 35.6 53.2 35.60000001 85.3l0 7.9c0 11-8.9 20-20 20zM767 467.3l-574 0c-22.09999999 0-40 17.9-40 40l0 175.1c0 10 7.40000001 18.3 17.2 19.8 55.3 8.29999999 97.8 56.09999999 97.8 113.7 0 63.50000001-51.5 115.00000001-115.00000001 115 0 20.40000001 16.6 37 37.00000001 37L767 967.9c22.09999999 0 40-17.9 40-39.99999999L807 507.3c0-22.09999999-17.9-40-40-40z" fill="#ff5e3a" p-id="790"></path><path d="M227 213.5c0.8-45.4-36.1-82.3-81.5-81.50000001-42.8 0.8-77.7 35.7-78.5 78.50000001-0.8 45.4 36.1 82.3 81.5 81.5 42.8-0.8 77.7-35.7 78.5-78.5zM227 817.5c0.8-45.4-36.1-82.3-81.5-81.5-42.8 0.8-77.7 35.7-78.5 78.5-0.8 45.4 36.1 82.3 81.49999999 81.5 42.8-0.8 77.7-35.7 78.50000001-78.5z" fill="#ff5e3a" p-id="791"></path></svg>